# xmcd
#
# Track frame offsets: 
#        150
#        11738
#        23622
#        36840
#        49638
#        63622
#        82047
#        94475
#        106460
#        117611
#        129271
#        143173
#        155911
#        167072
#        178321
#        191690
#        204831
#        215604
#        227450
#        240787
#        251268
#        262621
#        273976
#        286195
#        298825
#
# Disc length: 4109 seconds
#
# Revision: 0
# Processed by: cddbd v1.5.2PL0 Copyright (c) Steve Scherf et al.
# Submitted via: ExactAudioCopyFreeDBPlugin 1.0
#
DISCID=66100b19
DTITLE=Various Artist - Greetings from Detroit - CD2
DYEAR=2012
DGENRE=Soul
TTITLE0=The Miracles - Aint it baby
TTITLE1=Barrett Strong - Money and Me
TTITLE2=Little Iva - When I needed you
TTITLE3=The Contours - Whole lotta woman
TTITLE4=The Supremes - I want a guy
TTITLE5=The Gospel Stars - He lifted me
TTITLE6=Mickey  Woods - Poor Sam Jones
TTITLE7=The Satintones - Tomorrow and always
TTITLE8=Gino Parks - Blibberin' Blabberin' Blues
TTITLE9=The Satintones - Angel
TTITLE10=Marvin Gaye - Let your conscience be your guide
TTITLE11=Mary Wells - I don't want to take a chance
TTITLE12=Andre Williams - Rosa Lee (stay off the bell)
TTITLE13=Barrett Strong - Misery 
TTITLE14=The Miracles - Broken hearted
TTITLE15=Mable John - No love
TTITLE16=Gino Park - Same thing 
TTITLE17=The Satintones - I know how it feels
TTITLE18=The Supremes - Buttered popcorn
TTITLE19=The Temptations - Oh mother of mine
TTITLE20=The Golden Harmonies - I am bound
TTITLE21=The Marvelettes - Please Mr postman
TTITLE22=The Contours - The stretch
TTITLE23=Debbie Dean - Itty bitty pity love
TTITLE24=The Equadors - Someone to call my own
EXTD=
EXTT0=
EXTT1=
EXTT2=
EXTT3=
EXTT4=
EXTT5=
EXTT6=
EXTT7=
EXTT8=
EXTT9=
EXTT10=
EXTT11=
EXTT12=
EXTT13=
EXTT14=
EXTT15=
EXTT16=
EXTT17=
EXTT18=
EXTT19=
EXTT20=
EXTT21=
EXTT22=
EXTT23=
EXTT24=
PLAYORDER=
